<?xml version="1.0" encoding="utf-8"?>
<!-- Generator: Adobe Illustrator 19.0.0, SVG Export Plug-In . SVG Version: 6.00 Build 0)  -->
<svg version="1.1" id="Art" xmlns="http://www.w3.org/2000/svg" xmlns:xlink="http://www.w3.org/1999/xlink" x="0px" y="0px"
	 viewBox="0 0 112.9 21.6" style="enable-background:new 0 0 112.9 21.6;" xml:space="preserve">
<style type="text/css">
	.st0{fill:#FFFFFF;}
</style>
<path class="st0" d="M16.8,0.9C7.4,0.9,0.6,7.8,0.6,17.4H0v-17h17v0.5C16.9,0.9,16.8,0.9,16.8,0.9 M1.7,17.4H17V2.1
	c-0.1,0-0.1,0-0.2,0C8.1,2.1,1.8,8.5,1.7,17.4 M31.7,17.4v-6.3h-0.4c-1.1,5.1-1.5,5.7-2.8,5.7h-3.2v-8h1.4c0.9,0,1.4,0.8,1.7,3.4
	h0.4V4.9h-0.4c-0.4,2.6-0.8,3.4-1.7,3.4h-1.4V0.9h3.6c0.9,0,1.2,0.3,2.2,4.9h0.4V0.4h-9.3v0.5h1.1v15.9h-1.1v0.5H31.7z M40.9,21.6
	v-0.5H40V4.9h-0.5L39,6.6c-0.5-1.1-1.3-2.1-2.5-2.1c-2.2,0-3.8,2.8-3.8,6.6c0,4.3,1.4,6.6,3.5,6.6c0.8,0,1.7-0.6,2-1.6h0v5h-1v0.5
	H40.9z M36.4,17.1c-1.1,0-1.8-1.3-1.8-5.9c0-4.8,0.8-6.1,1.9-6.1c1.2,0,1.9,1,1.9,5.6C38.4,15.5,37.6,17.1,36.4,17.1 M49.6,16.8
	h-0.9V4.9h-2.8v0.5H47v7.7c0,2.5-0.9,3.7-1.9,3.7c-1,0-1.3-0.6-1.3-2.3V4.9H41v0.5h1v8.8c0,2.5,0.8,3.6,2.5,3.6c1.1,0,2.1-0.9,2.4-2
	h0v1.6h2.6V16.8z M53,4.9h-2.6v0.5h0.9v11.4h-0.8v0.5h3.5v-0.5H53V4.9z M52.1,0.7c-0.6,0-1,0.6-1,1.4c0,0.8,0.5,1.4,1,1.4
	c0.6,0,1-0.6,1-1.4C53.1,1.3,52.7,0.7,52.1,0.7 M54.2,5.4h1.2v9.4c0,2,0.8,2.9,2.1,2.9c1.5,0,2.3-0.9,2.3-3.5v-1.8h-0.5v2
	c0,1.8-0.5,2.5-1.3,2.5c-0.7,0-1-0.4-1-1.3V5.4h1.7V4.9h-1.7V2h-1.7v2.9h-1.2V5.4z M59.6,5.4h0.7L64,17.3c-0.4,2.1-1,3.8-1.8,3.8
	c-0.3,0-0.6-0.2-0.8-1.5l-0.5-2.4h-0.4V21c0.3,0.4,0.9,0.6,1.6,0.6c1,0,1.6-0.5,2.3-3.3l3.4-12.9h0.9V4.9h-3.2v0.5H67L64.8,14
	l-2.7-8.6h1.4V4.9h-3.9V5.4z M76.6,0c-2.8,0-5.3,3.5-5.3,8.9c0,5.4,2.5,8.9,5.3,8.9c2.8,0,5.3-3.5,5.3-8.9C81.9,3.5,79.4,0,76.6,0
	 M76.6,17.2c-2,0-3-1.9-3-8.3c0-6.4,1-8.3,3-8.3c2,0,3,1.9,3,8.3C79.6,15.3,78.7,17.2,76.6,17.2 M82.7,5.4h0.9v11.4h-0.9v0.5h3.9
	v-0.5h-1.3V5.4h2.1V4.9h-2.1V2.2c0-1.2,0.4-1.6,0.9-1.6c0.6,0,0.8,0.2,1.5,3h0.4V0.3C87.6,0.1,87,0,86.5,0c-2,0-2.9,1.3-2.9,3.6v1.3
	h-0.9V5.4z M88.1,5.4H89v11.4h-0.9v0.5H92v-0.5h-1.3V5.4h2.2V4.9h-2.2V2.2c0-1.2,0.4-1.6,0.9-1.6c0.6,0,0.8,0.2,1.5,3h0.4V0.3
	C93,0.1,92.4,0,91.9,0c-2,0-2.9,1.3-2.9,3.6v1.3h-0.8V5.4z M96.3,4.9h-2.5v0.5h0.8v11.4h-0.9v0.5h3.5v-0.5h-0.9V4.9z M95.4,0.7
	c-0.6,0-1,0.6-1,1.4c0,0.8,0.5,1.4,1,1.4c0.6,0,1-0.6,1-1.4C96.5,1.3,96,0.7,95.4,0.7 M104.7,5.3c-0.8-0.4-1.7-0.8-2.5-0.8
	c-2.8,0-4.5,2.7-4.5,6.6c0,3.9,1.6,6.6,4,6.6c1.7,0,3-1.5,3.1-5h-0.4c-0.1,3-1,4.3-2.4,4.3c-1.5,0-2.4-1.7-2.4-6.2
	c0-4.3,1.2-5.8,2.3-5.8c1,0,1.4,0.4,2.2,4.7h0.5V5.3z M112.9,10c0-3.5-1.3-5.4-3.4-5.4c-2.2,0-4,2.7-4,6.6c0,3.9,1.7,6.6,4,6.6
	c1.9,0,3.4-1.7,3.5-5.1h-0.4c-0.2,3-1.3,4.4-2.9,4.4c-1.4,0-2.3-1.6-2.3-6.4c0-0.2,0-0.5,0-0.7H112.9z M107.4,9.4
	c0.1-2.8,0.8-4.4,2-4.4c1,0,1.6,1,1.6,3.4v1H107.4z"/>
</svg>
