<?xml version="1.0" encoding="utf-8"?>
<!-- Generator: Adobe Illustrator 19.0.0, SVG Export Plug-In . SVG Version: 6.00 Build 0)  -->
<svg version="1.1" id="Layer_1" xmlns="http://www.w3.org/2000/svg" xmlns:xlink="http://www.w3.org/1999/xlink" x="0px" y="0px"
	 viewBox="0 0 347.1 379.6" style="enable-background:new 0 0 347.1 379.6;" xml:space="preserve">
<style type="text/css">
	.st0{fill:#FFFFFF;}
</style>
<g>
	<g>
		<path class="st0" d="M197.7,333.5c-0.1,0-0.3,0-0.4-0.1c-0.9-0.2-1.4-1.1-1.1-2l11.8-42.8c0.2-0.9,1.1-1.4,2-1.1
			c0.9,0.2,1.4,1.1,1.1,2l-11.8,42.8C199.1,333,198.4,333.5,197.7,333.5z"/>
		<path class="st0" d="M150.8,379.6c-0.7,0-1.3-0.5-1.5-1.2l-24.5-88.9c-0.2-0.9,0.3-1.7,1.1-2c0.9-0.2,1.7,0.3,2,1.1l24.5,88.9
			c0.2,0.9-0.3,1.7-1.1,2C151.1,379.5,151,379.6,150.8,379.6z"/>
		<path class="st0" d="M182.6,379.6c-0.7,0-1.3-0.4-1.5-1.1l-27-89.3c-0.3-0.8,0.2-1.7,1.1-2c0.8-0.3,1.7,0.2,2,1.1l27,89.3
			c0.3,0.8-0.2,1.7-1.1,2C182.9,379.5,182.7,379.6,182.6,379.6z"/>
	</g>
	<path class="st0" d="M1.6,378.2c-0.9,0-1.6-0.7-1.6-1.6v-89.2c0-0.9,0.7-1.6,1.6-1.6h47.8c0.9,0,1.6,0.7,1.6,1.6s-0.7,1.6-1.6,1.6
		H3.2v87.6C3.2,377.5,2.5,378.2,1.6,378.2z"/>
	<path class="st0" d="M53,235.3c-0.7,0-1.3-0.4-1.5-1.1l-29.3-88c-0.3-0.8,0.2-1.7,1-2c0.8-0.3,1.7,0.2,2,1l29.3,88
		c0.3,0.8-0.2,1.7-1,2C53.3,235.2,53.2,235.3,53,235.3z"/>
	<path class="st0" d="M42.7,204.3H1.6c-0.9,0-1.6-0.7-1.6-1.6s0.7-1.6,1.6-1.6h41.1c0.9,0,1.6,0.7,1.6,1.6S43.6,204.3,42.7,204.3z"
		/>
	<g>
		<path class="st0" d="M166.8,237c-0.7,0-1.3-0.4-1.5-1.1l-29.3-89c-0.3-0.8,0.2-1.7,1-2c0.8-0.3,1.7,0.2,2,1l29.3,89
			c0.3,0.8-0.2,1.7-1,2C167.1,236.9,166.9,237,166.8,237z"/>
		<path class="st0" d="M183.6,192.8c-0.2,0-0.3,0-0.5-0.1c-0.8-0.3-1.3-1.2-1-2l14.8-44.8c0.3-0.8,1.2-1.3,2-1c0.8,0.3,1.3,1.2,1,2
			l-14.8,44.8C184.9,192.4,184.3,192.8,183.6,192.8z"/>
	</g>
	<path class="st0" d="M288.4,91.2c-0.9,0-1.6-0.7-1.6-1.6v-88c0-0.9,0.7-1.6,1.6-1.6s1.6,0.7,1.6,1.6v88
		C290,90.5,289.3,91.2,288.4,91.2z"/>
	<path class="st0" d="M345.5,92.3c-0.5,0-0.9-0.2-1.2-0.6l-36.4-43.2c-0.5-0.6-0.5-1.4-0.1-2l32.6-43.3c0.5-0.7,1.5-0.8,2.2-0.3
		c0.7,0.5,0.8,1.5,0.3,2.2l-31.9,42.3l35.6,42.2c0.6,0.7,0.5,1.7-0.2,2.3C346.2,92.2,345.8,92.3,345.5,92.3z"/>
	<g>
		<path class="st0" d="M193.2,92.4c-0.5,0-1.1-0.3-1.4-0.7l-21.1-33.6c-0.3-0.4-0.3-1-0.1-1.4s0.6-0.8,1.1-1
			c11.8-3,20.1-13.5,20.1-25.6c0-14.5-11.8-26.3-26.4-26.3h-22.7c-0.9,0-1.6-0.7-1.6-1.6s0.7-1.6,1.6-1.6h22.7
			c16.3,0,29.6,13.2,29.6,29.5c0,12.9-8.3,24.1-20.4,28.1l20,31.8c0.5,0.7,0.2,1.7-0.5,2.2C193.7,92.3,193.4,92.4,193.2,92.4z"/>
	</g>
	<path class="st0" d="M4,93c-0.9,0-1.6-0.7-1.6-1.6V58.1c0-0.9,0.7-1.6,1.6-1.6h20.5C39.1,56.5,51,44.6,51,30.1
		C51,15.6,39.1,3.8,24.6,3.8H2.8c-0.9,0-1.6-0.7-1.6-1.6s0.7-1.6,1.6-1.6h21.8c16.3,0,29.6,13.2,29.6,29.5
		c0,16.3-13.3,29.6-29.6,29.6H5.6v31.8C5.6,92.3,4.9,93,4,93z"/>
	<path class="st0" d="M340.8,146.4H285c-0.9,0-1.6-0.7-1.6-1.6s0.7-1.6,1.6-1.6h55.8c0.9,0,1.6,0.7,1.6,1.6S341.7,146.4,340.8,146.4
		z"/>
	<path class="st0" d="M326.6,189.4H285c-0.9,0-1.6-0.7-1.6-1.6s0.7-1.6,1.6-1.6h41.6c0.9,0,1.6,0.7,1.6,1.6S327.5,189.4,326.6,189.4
		z"/>
	<path class="st0" d="M340.8,236.8H285c-0.9,0-1.6-0.7-1.6-1.6s0.7-1.6,1.6-1.6h55.8c0.9,0,1.6,0.7,1.6,1.6S341.7,236.8,340.8,236.8
		z"/>
	<path class="st0" d="M336.7,377.8c-0.5,0-1.1-0.3-1.4-0.7l-21.1-33.6c-0.3-0.4-0.3-1-0.1-1.4s0.6-0.8,1.1-1
		c11.8-3,20.1-13.5,20.1-25.6c0-14.5-11.8-26.3-26.4-26.3h-22.7c-0.9,0-1.6-0.7-1.6-1.6s0.7-1.6,1.6-1.6h22.7
		c16.3,0,29.6,13.2,29.6,29.5c0,12.9-8.3,24.1-20.4,28.1l20,31.8c0.5,0.7,0.2,1.7-0.5,2.2C337.3,377.7,337,377.8,336.7,377.8z"/>
	<path class="st0" d="M286.1,377.8c-0.9,0-1.6-0.7-1.6-1.6v-35c0-0.9,0.7-1.6,1.6-1.6c0.9,0,1.6,0.7,1.6,1.6v35
		C287.7,377.1,287,377.8,286.1,377.8z"/>
	<path class="st0" d="M142.6,93c-0.9,0-1.6-0.7-1.6-1.6V56c0-0.9,0.7-1.6,1.6-1.6s1.6,0.7,1.6,1.6v35.4
		C144.2,92.3,143.4,93,142.6,93z"/>
</g>
</svg>
