<?xml version="1.0" encoding="utf-8"?>
<!-- Generator: Adobe Illustrator 19.0.0, SVG Export Plug-In . SVG Version: 6.00 Build 0)  -->
<svg version="1.1" id="Layer_1" xmlns="http://www.w3.org/2000/svg" xmlns:xlink="http://www.w3.org/1999/xlink" x="0px" y="0px"
	 viewBox="0 0 261.6 44.8" style="enable-background:new 0 0 261.6 44.8;" xml:space="preserve">
<style type="text/css">
	.st0{fill:#FFFFFF;}
	.st1{fill-rule:evenodd;clip-rule:evenodd;fill:#FFFFFF;}
</style>
<g>
	<g>
		<path class="st0" d="M0,26.6v13.1h13.2l6.6-6.6L6.6,19.9L0,26.6z M0,0.2v13.1l6.6,6.6L19.8,6.8l-6.6-6.6H0z M26.4,0.2l-6.6,6.6
			l13.2,13.1L19.8,33.1l6.6,6.6h13.1V26.5l-6.5-6.5l6.5-6.5V0.2H26.4z"/>
		<rect x="46.2" y="0.2" class="st0" width="0.7" height="39.5"/>
		<g>
			<rect x="80" y="0.2" class="st0" width="13.1" height="3.5"/>
			<rect x="80" y="11.8" class="st0" width="13.1" height="3.9"/>
			<polygon class="st0" points="71.1,5.9 53.6,5.9 53.6,9.7 74,9.7 			"/>
			<polygon class="st0" points="66.7,0.2 53.6,0.2 53.6,3.8 69.5,3.8 			"/>
			<rect x="80" y="5.9" class="st0" width="13.1" height="3.9"/>
			<polygon class="st0" points="75.7,11.8 53.6,11.8 53.6,15.7 78.6,15.7 			"/>
			<rect x="53.6" y="23.8" class="st0" width="13.1" height="3.9"/>
			<rect x="53.6" y="29.8" class="st0" width="13.1" height="3.9"/>
			<polygon class="st0" points="80,39.7 93.1,39.7 93.1,35.7 76.9,35.7 			"/>
			<rect x="53.6" y="35.7" class="st0" width="13.1" height="3.9"/>
			<polygon class="st0" points="75.3,33.6 93.1,33.6 93.1,29.8 72.4,29.8 			"/>
			<polygon class="st0" points="70.8,27.6 93.1,27.6 93.1,23.8 67.8,23.8 			"/>
			<rect x="53.6" y="17.8" class="st0" width="39.5" height="3.9"/>
		</g>
	</g>
	<g>
		<g>
			<g>
				<path class="st1" d="M169.2,39.4l-0.4-1.9c-0.6,0.2-0.8,0.3-1.1,0.3c-1.1,0-1.4-0.4-1.4-1.9v-6h2l0.8-2.2h-2.8v-3.3l-3.1,0.5
					v2.8h-1.2v2.2h1.2v6.6c0,1.1,0,1.3,0.2,1.8c0.4,1.1,1.7,1.8,3.3,1.8C167.4,40,168.3,39.7,169.2,39.4"/>
				<polygon class="st1" points="119.4,39.7 113.7,30.9 118.9,23.3 114.9,23.3 110.2,30.8 110.2,23.3 106.9,23.3 106.9,39.7 
					110.2,39.7 110.2,31.1 115.2,39.7 				"/>
				<path class="st1" d="M129.9,39.7v-8.8c0-0.8-0.1-1.3-0.2-1.7c-0.4-1-1.6-1.7-2.9-1.7c-0.7,0-1.5,0.2-2.2,0.5
					c-0.5,0.3-1,0.7-1.4,1.1l-0.2-1.6l-2.7,0.4v11.8h3.2v-7.1c0-0.9,0.3-1.5,0.7-1.9c0.5-0.4,1-0.6,1.5-0.6c0.9,0,1.1,0.6,1.1,1.9
					v7.7H129.9z"/>
				<path class="st1" d="M144.8,34.8c0,0.6-0.1,1.1-0.3,1.6c-0.3,0.6-0.8,0.9-1.4,0.9c-1.9,0-2.1-1.3-2.1-3.8c0-2.3,0.4-3.6,2.1-3.6
					c0.8,0,1.4,0.4,1.8,0.8V34.8z M147.8,27.3l-2.4,0.4c0,0-0.2,0.7-0.2,0.9c-0.6-0.6-1.6-1.3-2.7-1.3c-3.8,0-5,3.4-5,6.6
					c0,3,1.3,5.9,4.9,5.9c1,0,2.1-0.6,2.5-1.2v1c0,1.8-0.2,2.7-2.5,2.7c-1.1,0-2.5-0.4-3.7-1l-0.8,2.2c1.5,0.8,3,1.2,4.6,1.2
					c1.2,0,3-0.2,4.1-1.2c1.2-1,1.2-2.7,1.2-4.4L147.8,27.3z"/>
				<path class="st1" d="M160.2,39.7v-8.5c0-1.2-0.1-1.5-0.3-2.2c-0.4-1.1-1.6-1.7-3.2-1.7c-1.4,0-2.6,0.5-3.5,1.5
					c0-0.2,0-0.9,0-1.2V23l-3.3,0.5v16.2h3.3V33c0-1.1,0.1-1.8,0.5-2.2c0.5-0.6,1.3-0.9,2-0.9c0.9,0,1.2,0.5,1.2,1.6v8.1H160.2z"/>
				<g>
					<polygon class="st1" points="135.5,39.7 135.5,27.3 132.3,27.8 132.3,39.7 					"/>
					<path class="st1" d="M135.9,24.2c0,1.1-0.9,2-2,2c-1.1,0-2-0.9-2-2c0-1.1,0.9-2,2-2C135,22.2,135.9,23.1,135.9,24.2"/>
				</g>
			</g>
			<g>
				<polygon class="st1" points="185.6,23.3 176.7,23.3 176.7,39.7 180,39.7 180,32.4 184.2,32.4 184.2,29.7 180,29.7 180,25.9 
					185.2,25.9 				"/>
				<path class="st1" d="M215.6,39.7v-8.8c0-0.8,0-1.3-0.2-1.7c-0.4-1-1.6-1.7-2.9-1.7c-0.7,0-1.6,0.2-2.2,0.5
					c-0.5,0.3-1,0.7-1.4,1.1l-0.2-1.6l-2.7,0.4v11.8h3.2v-7.1c0-0.9,0.3-1.5,0.7-1.9c0.5-0.4,1-0.6,1.5-0.6c0.9,0,1.1,0.6,1.1,1.9
					v7.7H215.6z"/>
				<g>
					<polygon class="st0" points="224.4,32.7 228.2,27.6 224.4,27.6 221.3,32.8 225.4,39.7 229.1,39.7 					"/>
					<polygon class="st0" points="218.1,23.6 218.1,39.7 221.3,39.7 221.3,32.8 221.3,23.1 					"/>
				</g>
				<path class="st0" d="M193.1,27.5c-0.5-0.2-0.7-0.3-1.2-0.3c-1.2,0-2.4,1.1-2.9,1.9l-0.3-1.6l-2.6,0.4v11.7h3.2v-7.5
					c0-0.6,0.1-1.1,0.5-1.5c0.3-0.3,0.8-0.6,1.4-0.6c0.4,0,0.8,0.1,1.1,0.3L193.1,27.5z"/>
				<path class="st0" d="M204.5,38.2c-1.1-0.8-1.2-1.4-1.2-2.7l0-4.1c0-1.2-0.1-1.6-0.2-2.1c-0.5-1.3-1.8-2.1-3.9-2.1
					c-1.1,0-2.1,0.2-3.3,0.7c-0.7,0.3-1.3,0.6-1.9,1l1.2,2.1c1.4-0.9,2.6-1.3,3.6-1.3c1.2,0,1.5,0.5,1.5,1.9v0.5h-0.7
					c-3.8,0-5.8,1.3-5.8,4.1c0,2.4,1.4,3.8,4.1,3.8c1,0,1.8-0.3,2.4-0.7c0.3-0.2,0.5-0.4,0.8-0.7c0.3,0.6,1,1.2,1.7,1.5L204.5,38.2z
					 M200.2,34.2l0,2.8c-0.5,0.5-1.1,0.7-1.7,0.7c-0.8,0-1.4-0.7-1.4-1.6c0-1.4,0.7-2,2.9-2H200.2z"/>
			</g>
		</g>
		<g>
			<g>
				<path class="st0" d="M114.8,16.6l-2.8-6.3c-0.2-0.5-0.5-1-0.7-1.6c-0.2-0.5-0.4-1-0.6-1.5c-0.2-0.5-0.4-0.9-0.5-1.3
					c-0.1-0.4-0.3-0.7-0.3-0.9c0,0.3,0.1,0.7,0.1,1.1c0,0.4,0,0.8,0,1.2c0,0.4,0,0.8,0,1.2c0,0.4,0,0.8,0,1.1l0.1,7h-3.2V0.2h3.7
					l3.1,6.6c0.4,0.9,0.8,1.7,1.1,2.5c0.3,0.8,0.5,1.5,0.7,2.1c0-0.3-0.1-0.7-0.1-1.1c0-0.4-0.1-0.8-0.1-1.2c0-0.4,0-0.8-0.1-1.2
					c0-0.4,0-0.7,0-1l-0.1-6.7h3.1v16.4H114.8z"/>
				<path class="st0" d="M123.9,11.5L123.9,11.5c0,1,0.2,1.8,0.7,2.3c0.4,0.5,1.1,0.8,1.9,0.8c1.1,0,2.1-0.4,3.1-1.2l1.2,1.9
					c-1.4,1.1-2.9,1.7-4.5,1.7c-0.9,0-1.6-0.1-2.4-0.4c-0.7-0.3-1.3-0.7-1.8-1.3c-0.5-0.5-0.9-1.2-1.1-2c-0.3-0.8-0.4-1.6-0.4-2.6
					c0-1.1,0.1-2,0.4-2.8c0.2-0.7,0.6-1.4,1.2-2c0.5-0.6,1.1-1,1.7-1.2c0.6-0.3,1.3-0.4,2.1-0.4c0.7,0,1.4,0.1,2,0.3
					c0.6,0.2,1.1,0.5,1.5,0.9c0.5,0.6,0.9,1.3,1.2,2.1c0.3,0.8,0.4,1.9,0.4,3.2v0.7H123.9z M127.6,9.1c0-0.5,0-0.8-0.1-1.1
					c-0.1-0.3-0.2-0.5-0.3-0.7c-0.3-0.5-0.8-0.7-1.4-0.7c-0.6,0-1.1,0.2-1.4,0.7c-0.3,0.4-0.5,1.1-0.5,1.9v0h3.6V9.1z"/>
				<path class="st0" d="M144.7,16.6h-2.9l-1.1-4.1c-0.1-0.5-0.2-1-0.4-1.5c-0.1-0.5-0.2-1-0.3-1.4l-0.1-0.6c0-0.1,0-0.3-0.1-0.6
					c0,0.1,0,0.2,0,0.4L139.8,9c0,0.1,0,0.2-0.1,0.4c0,0.1-0.1,0.3-0.1,0.5c-0.1,0.3-0.1,0.6-0.2,0.9c-0.1,0.4-0.2,0.7-0.3,1.1
					c-0.1,0.4-0.2,0.8-0.3,1.2c-0.1,0.4-0.2,0.7-0.2,1l-0.6,2.5H135l-3.3-11.8l3.1-0.4l1,4.6c0.1,0.4,0.2,0.8,0.2,1.2
					c0.1,0.4,0.1,0.8,0.2,1.2c0.1,0.4,0.2,0.9,0.2,1.3c0.1-0.4,0.1-0.8,0.2-1.3c0.1-0.4,0.2-0.9,0.3-1.4c0.1-0.5,0.2-1,0.4-1.5
					l1.1-4h3l1,4c0.1,0.6,0.2,1.1,0.4,1.6c0.1,0.5,0.2,1,0.3,1.4c0.1,0.5,0.2,0.9,0.2,1.3c0-0.1,0-0.3,0.1-0.6c0-0.3,0.1-0.6,0.2-1
					c0.1-0.4,0.1-0.8,0.2-1.2c0.1-0.4,0.1-0.8,0.2-1.2l0.9-4.3h3.2L144.7,16.6z"/>
				<path class="st0" d="M161.8,16.6v-8c0-0.4,0-0.6,0-0.9c0-0.2-0.1-0.4-0.1-0.5c-0.1-0.1-0.2-0.2-0.3-0.3c-0.1,0-0.3-0.1-0.5-0.1
					c-0.3,0-0.6,0.1-1,0.3c-0.4,0.2-0.7,0.4-1.1,0.7v8.7h-3V8.7c0-0.8-0.1-1.2-0.2-1.5c-0.1-0.2-0.4-0.4-0.9-0.4
					c-0.3,0-0.6,0.1-1,0.2c-0.4,0.2-0.7,0.4-1.1,0.7v8.8h-3.1V4.8l2.4-0.5c0,0,0.4,1.2,0.4,1.2c0.8-0.8,1.8-1.2,2.9-1.2
					c1,0,1.8,0.3,2.4,1c0.2,0.2,0.3,0.4,0.5,0.6c0.5-0.6,1.1-1,1.6-1.2c0.5-0.2,1.1-0.4,1.8-0.4c0.5,0,0.9,0.1,1.3,0.2
					c0.4,0.1,0.8,0.3,1,0.6c0.2,0.1,0.3,0.3,0.4,0.5c0.1,0.2,0.2,0.4,0.3,0.6c0.1,0.2,0.1,0.5,0.1,0.8c0,0.3,0,0.7,0,1.1v8.6H161.8z
					"/>
				<g>
					<polygon class="st0" points="193.1,9.6 197,4.5 193.2,4.5 190,9.7 194.2,16.6 197.9,16.6 					"/>
					<polygon class="st0" points="186.9,0.5 186.9,16.6 190,16.6 190,9.7 190,0 					"/>
				</g>
				<path class="st0" d="M185.4,4.5c-0.5-0.2-0.7-0.3-1.2-0.3c-1.2,0-2.4,1.1-2.9,1.9l-0.3-1.6l-2.6,0.4v11.7h3.2V9.1
					c0-0.6,0.1-1.1,0.5-1.5c0.3-0.3,0.8-0.6,1.4-0.6c0.4,0,0.8,0.1,1.1,0.3L185.4,4.5z"/>
				<path class="st0" d="M177.2,15.1c-1.1-0.8-1.2-1.4-1.2-2.7l0-4.1c0-1.2-0.1-1.6-0.2-2.1c-0.5-1.3-1.8-2.1-3.9-2.1
					c-1.1,0-2.1,0.2-3.3,0.7c-0.7,0.3-1.3,0.6-1.9,1l1.2,2.1c1.4-0.9,2.6-1.3,3.6-1.3c1.2,0,1.5,0.5,1.5,1.9V9h-0.7
					c-3.8,0-5.8,1.3-5.8,4.1c0,2.4,1.4,3.8,4.1,3.8c1,0,1.8-0.3,2.4-0.7c0.3-0.2,0.5-0.4,0.8-0.7c0.3,0.6,1,1.2,1.7,1.5L177.2,15.1z
					 M172.9,11.1l0,2.8c-0.5,0.5-1.1,0.7-1.7,0.7c-0.8,0-1.4-0.7-1.4-1.6c0-1.4,0.7-2,2.9-2H172.9z"/>
			</g>
			<g>
				<path class="st0" d="M216.9,15.4c-0.8,0.5-1.7,0.9-2.6,1.1c-0.9,0.2-1.8,0.4-2.8,0.4c-1.2,0-2.3-0.2-3.2-0.6
					c-0.9-0.4-1.7-1-2.4-1.9c-0.6-0.8-1-1.6-1.3-2.5c-0.3-0.9-0.4-2-0.4-3.2c0-3.5,1.1-5.9,3.4-7.5c0.6-0.4,1.2-0.7,1.9-0.9
					c0.6-0.2,1.4-0.3,2.1-0.3c1,0,1.9,0.2,2.8,0.5c0.9,0.3,1.7,0.8,2.4,1.4L215,4c-1-0.9-2.2-1.3-3.4-1.3c-1,0-1.8,0.3-2.4,0.8
					c-0.6,0.5-0.9,1.2-1.1,2.1c-0.2,0.9-0.3,1.9-0.3,3.2c0,2.3,0.4,3.9,1.2,4.7c0.6,0.6,1.5,0.9,2.6,0.9c0.7,0,1.3-0.1,1.9-0.4v-3.7
					H211l-0.4-2.7h6.4V15.4z"/>
				<path class="st0" d="M235.2,16.9c-0.4-0.3-0.7-0.7-0.9-1.2c-0.4,0.4-0.9,0.7-1.4,0.9c-0.5,0.2-1.1,0.3-1.8,0.3
					c-0.8,0-1.6-0.2-2.3-0.5c-0.7-0.4-1.1-0.8-1.3-1.4c-0.1-0.3-0.2-0.6-0.2-0.9c0-0.4-0.1-0.8-0.1-1.5V4.8l3.1-0.6V12
					c0,0.6,0,1,0.1,1.3c0,0.3,0.1,0.5,0.2,0.7c0.1,0.2,0.2,0.3,0.4,0.4c0.2,0.1,0.4,0.2,0.7,0.2c0.4,0,0.8-0.1,1.2-0.4
					c0.4-0.2,0.7-0.5,0.8-0.8V4.9l3-0.6v9.2c0,0.4,0.1,0.8,0.2,1.2c0.1,0.4,0.3,0.7,0.5,1L235.2,16.9z"/>
				<path class="st0" d="M239,16.3l2.6,0.5c0,0,0.2-0.9,0.2-1.1c0.3,0.3,0.7,0.6,1.2,0.8c0.6,0.2,1.1,0.3,1.7,0.3
					c0.4,0,0.8-0.1,1.3-0.2c0.4-0.1,0.8-0.3,1.1-0.5c0.3-0.2,0.6-0.5,0.9-0.8c0.3-0.3,0.5-0.7,0.7-1.1c0.2-0.4,0.4-0.9,0.5-1.5
					c0.1-0.5,0.2-1.2,0.2-1.9c0-0.6,0-1.2-0.1-1.7c-0.1-0.5-0.1-1-0.3-1.4c-0.1-0.4-0.3-0.8-0.5-1.1c-0.2-0.3-0.5-0.7-0.8-1
					c-0.4-0.4-0.9-0.8-1.4-1c-0.5-0.2-1.1-0.4-1.8-0.4c-0.5,0-0.9,0.1-1.4,0.2c-0.4,0.1-0.8,0.3-1.1,0.5l0-4.8L239,0.5L239,16.3z
					 M242.1,7.4c0.2-0.2,0.5-0.3,0.8-0.5c0.3-0.1,0.6-0.2,0.9-0.2c0.8,0,1.3,0.3,1.7,0.9c0.3,0.6,0.5,1.6,0.5,2.9
					c0,0.6,0,1.1-0.1,1.5c0,0.4-0.1,0.8-0.2,1.1c-0.2,0.7-0.7,1-1.5,1c-0.8,0-1.5-0.3-2.1-0.9V7.4z"/>
				<path class="st0" d="M251.2,16.3l2.6,0.5c0,0,0.2-0.9,0.2-1.1c0.3,0.3,0.7,0.6,1.2,0.8c0.6,0.2,1.1,0.3,1.7,0.3
					c0.4,0,0.8-0.1,1.3-0.2c0.4-0.1,0.8-0.3,1.1-0.5c0.3-0.2,0.6-0.5,0.9-0.8c0.3-0.3,0.5-0.7,0.7-1.1c0.2-0.4,0.4-0.9,0.5-1.5
					c0.1-0.5,0.2-1.2,0.2-1.9c0-0.6,0-1.2-0.1-1.7c-0.1-0.5-0.1-1-0.3-1.4c-0.1-0.4-0.3-0.8-0.5-1.1c-0.2-0.3-0.5-0.7-0.8-1
					c-0.4-0.4-0.9-0.8-1.4-1c-0.5-0.2-1.1-0.4-1.8-0.4c-0.5,0-0.9,0.1-1.4,0.2c-0.4,0.1-0.8,0.3-1.1,0.5l0-4.8l-3.1,0.5L251.2,16.3z
					 M254.3,7.4c0.2-0.2,0.5-0.3,0.8-0.5c0.3-0.1,0.6-0.2,0.9-0.2c0.8,0,1.3,0.3,1.7,0.9c0.3,0.6,0.5,1.6,0.5,2.9
					c0,0.6,0,1.1-0.1,1.5c0,0.4-0.1,0.8-0.2,1.1c-0.2,0.7-0.7,1-1.5,1c-0.8,0-1.5-0.3-2.1-0.9V7.4z"/>
				<path class="st0" d="M226.1,4.5c-0.5-0.2-0.7-0.3-1.2-0.3c-1.2,0-2.4,1.1-2.9,1.9l-0.3-1.6l-2.6,0.4v11.7h3.2V9.1
					c0-0.6,0.1-1.1,0.5-1.5c0.3-0.3,0.8-0.6,1.4-0.6c0.4,0,0.8,0.1,1.1,0.3L226.1,4.5z"/>
			</g>
		</g>
	</g>
</g>
</svg>
