<?xml version="1.0" encoding="utf-8"?>
<!-- Generator: Adobe Illustrator 19.0.0, SVG Export Plug-In . SVG Version: 6.00 Build 0)  -->
<svg version="1.1" id="Capa_1" xmlns="http://www.w3.org/2000/svg" xmlns:xlink="http://www.w3.org/1999/xlink" x="0px" y="0px"
	 viewBox="-146 238.2 317.8 317.8" style="enable-background:new -146 238.2 317.8 317.8;" xml:space="preserve">

<g>
	<g>
		<g>
			<g>
				<path class="st0" d="M155.9,381.2h-286c-8.8,0-15.9,7.1-15.9,15.9c0,8.8,7.1,15.9,15.9,15.9h286c8.7,0,15.9-7.1,15.9-15.9
					C171.8,388.3,164.7,381.2,155.9,381.2z"/>
				<path class="st0" d="M-130.1,317.6h286c8.7,0,15.9-7.1,15.9-15.9s-7.2-15.9-15.9-15.9h-286c-8.8,0-15.9,7.1-15.9,15.9
					S-138.9,317.6-130.1,317.6z"/>
				<path class="st0" d="M155.9,476.5h-286c-8.8,0-15.9,7.2-15.9,15.9s7.1,15.9,15.9,15.9h286c8.7,0,15.9-7.2,15.9-15.9
					C171.8,483.7,164.7,476.5,155.9,476.5z"/>
			</g>
		</g>
	</g>
</g>
</svg>
